M48
; DRILL file {KiCad 9.0.7} date 2026-04-02T14:04:49+0200
; FORMAT={-:-/ absolute / metric / decimal}
; #@! TF.CreationDate,2026-04-02T14:04:49+02:00
; #@! TF.GenerationSoftware,Kicad,Pcbnew,9.0.7
; #@! TF.FileFunction,Plated,1,2,PTH
FMAT,2
METRIC
; #@! TA.AperFunction,Plated,PTH,ComponentDrill
T1C0.500
; #@! TA.AperFunction,Plated,PTH,ComponentDrill
T2C0.700
; #@! TA.AperFunction,Plated,PTH,ViaDrill
T3C0.800
; #@! TA.AperFunction,Plated,PTH,ComponentDrill
T4C0.800
; #@! TA.AperFunction,Plated,PTH,ComponentDrill
T5C1.000
; #@! TA.AperFunction,Plated,PTH,ComponentDrill
T6C1.200
%
G90
G05
T1
X41.367Y51.0
X42.367Y51.0
T2
X74.367Y27.54
X74.367Y22.46
X74.367Y15.54
X74.367Y10.46
T3
X42.367Y28.0
X47.367Y31.0
X54.367Y20.0
X54.367Y15.0
T4
X39.747Y25.12
X39.747Y22.58
X39.747Y20.04
X39.747Y17.5
X47.367Y25.12
X47.367Y22.58
X47.367Y20.04
X47.367Y17.5
X59.867Y36.5
X59.867Y34.5
X59.867Y32.5
X61.867Y36.5
X61.867Y34.5
X61.867Y32.5
T6
X91.867Y74.0
X91.867Y14.0
T5
G00X39.867Y39.5
M15
G01X39.867Y37.5
M16
G05
G00X41.867Y33.8
M15
G01X43.867Y33.8
M16
G05
G00X45.867Y39.5
M15
G01X45.867Y37.5
M16
G05
M30
